<?xml version="1.0" encoding="UTF-8" standalone="no"?>
<!-- Created with Inkscape (http://www.inkscape.org/) -->

<svg
   xmlns:dc="http://purl.org/dc/elements/1.1/"
   xmlns:cc="http://creativecommons.org/ns#"
   xmlns:rdf="http://www.w3.org/1999/02/22-rdf-syntax-ns#"
   xmlns:svg="http://www.w3.org/2000/svg"
   xmlns="http://www.w3.org/2000/svg"
   xmlns:sodipodi="http://sodipodi.sourceforge.net/DTD/sodipodi-0.dtd"
   xmlns:inkscape="http://www.inkscape.org/namespaces/inkscape"
   width="800"
   height="300"
   id="svg3312"
   version="1.1"
   inkscape:version="0.48.5 r10040"
   sodipodi:docname="New document 17">
  <defs
     id="defs3314" />
  <sodipodi:namedview
     id="base"
     pagecolor="#ffffff"
     bordercolor="#666666"
     borderopacity="1.0"
     inkscape:pageopacity="0.0"
     inkscape:pageshadow="2"
     inkscape:zoom="0.35"
     inkscape:cx="375"
     inkscape:cy="520"
     inkscape:document-units="px"
     inkscape:current-layer="layer1"
     showgrid="false"
     inkscape:window-width="1366"
     inkscape:window-height="702"
     inkscape:window-x="0"
     inkscape:window-y="27"
     inkscape:window-maximized="1" />
  <metadata
     id="metadata3317">
    <rdf:RDF>
      <cc:Work
         rdf:about="">
        <dc:format>image/svg+xml</dc:format>
        <dc:type
           rdf:resource="http://purl.org/dc/dcmitype/StillImage" />
        <dc:title></dc:title>
      </cc:Work>
    </rdf:RDF>
  </metadata>
  <g
     inkscape:label="Layer 1"
     inkscape:groupmode="layer"
     id="layer1"
     transform="translate(0,-752.36218)">
    <g
       id="g3049"
       transform="matrix(4.1680417,0,0,4.1680417,7.7529456,686.52258)">
      <path
         d="m 98.306,26.34 c -0.131,0.005 -0.247,0.01 -0.351,0.014 0.416,0.085 -0.287,0.457 -8.211,1.794 -4.914,2.184 -3.292,6.235 -4.081,9.675 -4.006,20.872 -22.77,28.5 -25.934,29.605 -2.438,0.995 -5.171,1.361 -4.024,3.567 3.385,8.138 4.249,8.692 4.249,8.692 0,0 0.802,0.483 1.565,0.4 0.764,-0.082 1.517,-0.253 2.684,-0.86 0.28,-0.188 1.738,0.723 2.107,1.529 -1.118,-0.128 -1.621,-0.855 -2.107,-0.669 -2.069,0.722 0.545,1.085 0.545,1.085 h 1.428 c 0.921,0 0.99,0.158 1.842,0 1.27,-0.607 1.469,-0.754 1.705,-0.754 0.201,-0.095 1.963,1.271 1.963,1.5 0,0.228 -1.506,-1.031 -1.963,-1.031 -0.407,0 -0.682,0.282 -1.164,0.669 0.418,0.444 1.164,0.578 1.365,1.443 -2.006,-1.366 -2.861,-1.081 -2.861,-1.081 l -12.871,0.359 c 0,0 -1.21,-0.209 -2.94,0.722 0,-1.045 2.368,-1.25 2.368,-1.25 0,0 4.062,-0.098 5.553,-0.188 1.687,-0.496 0.104,-1.144 0.104,-1.144 0,0 -2.99,-0.93 -5.656,-0.48 -4.229,-0.647 -4.395,-0.241 -4.834,-0.115 -0.398,-0.111 -1.129,-0.632 -3.13,0.69 0.077,-0.549 0.731,-0.785 1.131,-1.024 0.399,-0.238 0.673,-0.383 1.999,-0.354 2.128,0.045 4.277,-0.025 4.277,-0.025 0,0 -3.001,-9.555 -2.854,-10.696 0.148,-1.141 1.254,-1.94 1.512,-2.724 0,-1.158 -3.211,-1.729 -3.211,-1.729 0,0 -10.236,-1.592 -20.461,-2.541 -9.973,0 -23.99,4.878 -23.99,4.878 0,0 -4.148,0.802 -2.782,-1.686 1.366,-2.488 19.841,-7.168 19.841,-7.168 0,0 -13.889,2.422 -11.782,0.58 2.107,-1.842 18.537,-6.754 18.537,-6.754 0,0 -3.079,0.787 -0.841,-1.5 C 29.27,47.482 53.064,37.822 67.81,33.596 72.621,22.534 79.117,19.359 84.368,20.795 l 4.827,2.333 c 2.129,0 4.946,-0.186 5.997,0.821 0.774,0.445 -0.11,-0.183 3.114,2.391 z m -44.79,40.878 c -0.906,0.263 -1.824,1.166 -1.744,2.32 0.097,1.647 1.111,7.997 2.408,8.991 1.298,0.993 1.869,0.894 3.075,0.285 0.437,-0.423 -3.944,-8.392 -3.944,-8.392 -0.267,-0.491 -0.122,-1.146 0.32,-1.471 l 1.672,-1.432 c -1.024,-0.783 -0.654,-0.847 -1.787,-0.301 z"
         id="path3051"
         inkscape:connector-curvature="0"
         style="fill:#000000" />
    </g>
    <text
       xml:space="preserve"
       style="font-size:104.43483734px;font-style:normal;font-variant:normal;font-weight:200;font-stretch:normal;text-align:start;line-height:125%;letter-spacing:0px;word-spacing:0px;writing-mode:lr-tb;text-anchor:start;fill:#000000;fill-opacity:1;stroke:none;font-family:DejaVu Sans;-inkscape-font-specification:DejaVu Sans Ultra-Light"
       x="379.45782"
       y="894.16986"
       id="text2989"
       sodipodi:linespacing="125%"><tspan
         sodipodi:role="line"
         x="379.45782"
         y="894.16986"
         id="tspan2991"><tspan
           x="379.45782"
           y="894.16986"
           style="font-family:DejaVu Sans;-inkscape-font-specification:DejaVu Sans Ultra-Light"
           id="tspan2993">DO I</tspan><tspan
           dx="0"
           x="606.0733"
           y="894.16986"
           style="font-family:DejaVu Sans;-inkscape-font-specification:DejaVu Sans Ultra-Light"
           id="tspan2995" /></tspan><tspan
         sodipodi:role="line"
         x="379.45782"
         y="1024.7134"
         id="tspan2997"><tspan
           x="379.45782"
           y="1024.7134"
           style="font-family:DejaVu Sans;-inkscape-font-specification:DejaVu Sans Ultra-Light"
           id="tspan2999">ACCESS</tspan></tspan></text>
  </g>
</svg>
